<?xml version="1.0" encoding="UTF-8" standalone="no"?>
<svg
   xmlns:dc="http://purl.org/dc/elements/1.1/"
   xmlns:cc="http://creativecommons.org/ns#"
   xmlns:rdf="http://www.w3.org/1999/02/22-rdf-syntax-ns#"
   xmlns:svg="http://www.w3.org/2000/svg"
   xmlns="http://www.w3.org/2000/svg"
   viewBox="0 0 2000 1332.16"
   height="1332.16"
   width="2000"
   xml:space="preserve"
   id="svg2"
   version="1.1"><metadata
     id="metadata8"><rdf:RDF><cc:Work
         rdf:about=""><dc:format>image/svg+xml</dc:format><dc:type
           rdf:resource="http://purl.org/dc/dcmitype/StillImage" /></cc:Work></rdf:RDF></metadata><defs
     id="defs6" /><g
     transform="matrix(1.3333333,0,0,-1.3333333,0,1332.16)"
     id="g10"><g
       transform="scale(0.1)"
       id="g12"><path
         id="path14"
         style="fill:#131211;fill-opacity:1;fill-rule:nonzero;stroke:none"
         d="M 15000,0 H 0 V 9991.23 H 15000 V 0" /><path
         id="path16"
         style="fill:#131211;fill-opacity:1;fill-rule:nonzero;stroke:none"
         d="M 5962.25,4226.23 7072.36,1408.75 4951.23,2475.1 Z" /><path
         id="path18"
         style="fill:#1b1919;fill-opacity:1;fill-rule:nonzero;stroke:none"
         d="M 5962.25,4226.23 4039.08,3358.94 4951.23,2475.1 Z" /><path
         id="path20"
         style="fill:#363535;fill-opacity:1;fill-rule:nonzero;stroke:none"
         d="m 3922.04,2008.81 117.04,1350.13 912.15,-883.84 z" /><path
         id="path22"
         style="fill:#272626;fill-opacity:1;fill-rule:nonzero;stroke:none"
         d="m 3922.04,4649.07 117.04,-1290.13 1923.17,867.29 z" /><path
         id="path24"
         style="fill:#1b1918;fill-opacity:1;fill-rule:nonzero;stroke:none"
         d="M 3922.04,4649.07 4436.63,6012.58 5962.25,4226.23 Z" /><path
         id="path26"
         style="fill:#131211;fill-opacity:1;fill-rule:nonzero;stroke:none"
         d="m 3922.04,4649.07 514.59,1363.51 -1296.54,869.96 z" /><path
         id="path28"
         style="fill:#131211;fill-opacity:1;fill-rule:nonzero;stroke:none"
         d="m 2721.92,4004 418.17,2878.54 781.95,-2233.47 z" /><path
         id="path30"
         style="fill:#21201f;fill-opacity:1;fill-rule:nonzero;stroke:none"
         d="M 2725.55,4002.5 3136.46,6882.08 1925.15,5119.4 Z" /><path
         id="path32"
         style="fill:#131211;fill-opacity:1;fill-rule:nonzero;stroke:none"
         d="M 2725.55,4002.5 1625.16,3852.69 1925.15,5119.4 Z" /><path
         id="path34"
         style="fill:#2c2a2a;fill-opacity:1;fill-rule:nonzero;stroke:none"
         d="M 2725.55,4002.5 1625.16,3852.69 3922.04,2008.81 Z" /><path
         id="path36"
         style="fill:#302f2f;fill-opacity:1;fill-rule:nonzero;stroke:none"
         d="M 2090.14,3005.65 1625.16,3852.69 3922.04,2008.81 Z" /><path
         id="path38"
         style="fill:#302f2f;fill-opacity:1;fill-rule:nonzero;stroke:none"
         d="M 515.215,1107.82 2090.14,3005.65 0,2562.74 Z" /><path
         id="path40"
         style="fill:#272626;fill-opacity:1;fill-rule:nonzero;stroke:none"
         d="M 0,2562.74 V 3447.7 L 2090.14,3005.65 Z" /><path
         id="path42"
         style="fill:#3d3c3e;fill-opacity:1;fill-rule:nonzero;stroke:none"
         d="m 0,3447.7 1625.16,404.99 464.98,-847.04 z" /><path
         id="path44"
         style="fill:#131211;fill-opacity:1;fill-rule:nonzero;stroke:none"
         d="M 0,3447.7 1625.16,3852.69 0,4347.66 Z" /><path
         id="path46"
         style="fill:#21201f;fill-opacity:1;fill-rule:nonzero;stroke:none"
         d="M 1925.15,5119.4 1625.16,3852.69 0,4347.66 Z" /><path
         id="path48"
         style="fill:#3a3a3b;fill-opacity:1;fill-rule:nonzero;stroke:none"
         d="M 0,4347.66 1925.15,5119.4 1235.18,6222.57 Z" /><path
         id="path50"
         style="fill:#131211;fill-opacity:1;fill-rule:nonzero;stroke:none"
         d="M 3140.09,6882.54 1925.15,5119.4 1235.18,6222.57 Z" /><path
         id="path52"
         style="fill:#131211;fill-opacity:1;fill-rule:nonzero;stroke:none"
         d="M 0,5909.73 1235.18,6222.57 0,4347.66 Z" /><path
         id="path54"
         style="fill:#181615;fill-opacity:1;fill-rule:nonzero;stroke:none"
         d="m 5962.25,4226.23 162.69,1683.5 -1688.31,102.85 z" /><path
         id="path56"
         style="fill:#1a1817;fill-opacity:1;fill-rule:nonzero;stroke:none"
         d="m 5962.25,4226.23 162.69,1683.5 1019.94,-62.14 z" /><path
         id="path58"
         style="fill:#181615;fill-opacity:1;fill-rule:nonzero;stroke:none"
         d="M 7392.37,4226.23 7144.88,5847.59 5962.25,4226.23 Z" /><path
         id="path60"
         style="fill:#21201f;fill-opacity:1;fill-rule:nonzero;stroke:none"
         d="m 9430.99,4287.95 -900.28,466.83 1123.34,523.35 z" /><path
         id="path62"
         style="fill:#1b1918;fill-opacity:1;fill-rule:nonzero;stroke:none"
         d="M 8392.49,5879.22 7392.37,4226.23 9652.62,5279.15 Z" /><path
         id="path64"
         style="fill:#181615;fill-opacity:1;fill-rule:nonzero;stroke:none"
         d="m 8392.49,5879.22 1920.21,180.02 -660.08,-780.09 z" /><path
         id="path66"
         style="fill:#131211;fill-opacity:1;fill-rule:nonzero;stroke:none"
         d="m 10912.7,4409.07 -600,1650.17 -660.08,-780.09 z" /><path
         id="path68"
         style="fill:#181615;fill-opacity:1;fill-rule:nonzero;stroke:none"
         d="m 11902.8,5279.16 -990.1,-870.09 -600,1650.17 z" /><path
         id="path70"
         style="fill:#1a1817;fill-opacity:1;fill-rule:nonzero;stroke:none"
         d="m 12740.7,4478.12 -837.9,801.04 -990.1,-870.09 z" /><path
         id="path72"
         style="fill:#1b1919;fill-opacity:1;fill-rule:nonzero;stroke:none"
         d="m 12740.7,4478.12 -860,-1420 73.3,1386.66 z" /><path
         id="path74"
         style="fill:#181615;fill-opacity:1;fill-rule:nonzero;stroke:none"
         d="m 10912.7,4409.07 968,-1350.95 -2449.71,1229.83 z" /><path
         id="path76"
         style="fill:#1b1919;fill-opacity:1;fill-rule:nonzero;stroke:none"
         d="m 10912.7,4409.07 -1481.71,-121.12 221.63,991.2 z" /><path
         id="path78"
         style="fill:#1b1918;fill-opacity:1;fill-rule:nonzero;stroke:none"
         d="M 4436.63,6012.58 3140.09,6882.54 7144.88,5847.59 Z" /><path
         id="path80"
         style="fill:#21201f;fill-opacity:1;fill-rule:nonzero;stroke:none"
         d="m 5629.96,6642.54 -2489.87,240 4004.79,-1034.95 z" /><path
         id="path82"
         style="fill:#302f2f;fill-opacity:1;fill-rule:nonzero;stroke:none"
         d="m 5629.96,6642.54 -2489.87,240 389.98,1169.93 z" /><path
         id="path84"
         style="fill:#131211;fill-opacity:1;fill-rule:nonzero;stroke:none"
         d="m 1045.07,7272.51 2095.02,-389.97 389.98,1169.93 z" /><path
         id="path86"
         style="fill:#302f2f;fill-opacity:1;fill-rule:nonzero;stroke:none"
         d="M 1235.18,6222.57 1045.07,7272.51 3140.09,6882.54 Z" /><path
         id="path88"
         style="fill:#21201f;fill-opacity:1;fill-rule:nonzero;stroke:none"
         d="m 1505.17,7416.92 108.88,374.53 1916.02,261.02 z" /><path
         id="path90"
         style="fill:#131211;fill-opacity:1;fill-rule:nonzero;stroke:none"
         d="m 1505.17,7416.92 108.88,374.53 -1251.577,51.03 z" /><path
         id="path92"
         style="fill:#2a2928;fill-opacity:1;fill-rule:nonzero;stroke:none"
         d="M 1235.18,6222.57 1045.07,7272.51 0,5909.73 Z" /><path
         id="path94"
         style="fill:#131211;fill-opacity:1;fill-rule:nonzero;stroke:none"
         d="M 0,6591.11 1045.07,7272.51 0,5909.73 Z" /><path
         id="path96"
         style="fill:#131211;fill-opacity:1;fill-rule:nonzero;stroke:none"
         d="M 0,7977.47 V 6591.11 l 1045.07,681.4 z" /><path
         id="path98"
         style="fill:#131211;fill-opacity:1;fill-rule:nonzero;stroke:none"
         d="M 1045.07,7272.51 0,7977.47 1505.17,7416.92 Z" /><path
         id="path100"
         style="fill:#3a3a3b;fill-opacity:1;fill-rule:nonzero;stroke:none"
         d="m 0,7977.47 1045.07,-704.96 460.1,144.41 z" /><path
         id="path102"
         style="fill:#131211;fill-opacity:1;fill-rule:nonzero;stroke:none"
         d="M 4730,7842.48 3530.07,8052.47 5629.96,6642.54 Z" /><path
         id="path104"
         style="fill:#272626;fill-opacity:1;fill-rule:nonzero;stroke:none"
         d="m 7144.88,5847.59 -1514.92,794.95 1144.56,389.98 z" /><path
         id="path106"
         style="fill:#1a1817;fill-opacity:1;fill-rule:nonzero;stroke:none"
         d="m 8134.83,7167.52 -1360.31,-135 370.36,-1184.93 z" /><path
         id="path108"
         style="fill:#131211;fill-opacity:1;fill-rule:nonzero;stroke:none"
         d="m 6649.91,8157.47 1484.92,-989.95 -1360.31,-135 z" /><path
         id="path110"
         style="fill:#1b1918;fill-opacity:1;fill-rule:nonzero;stroke:none"
         d="M 6649.91,8157.47 8134.83,7167.52 9499.77,7595 Z" /><path
         id="path112"
         style="fill:#1b1918;fill-opacity:1;fill-rule:nonzero;stroke:none"
         d="M 9652.62,6365.06 8134.83,7167.52 9499.77,7595 Z" /><path
         id="path114"
         style="fill:#1b1918;fill-opacity:1;fill-rule:nonzero;stroke:none"
         d="M 4730,7842.48 6649.91,8157.47 5629.96,6642.54 Z" /><path
         id="path116"
         style="fill:#302f2f;fill-opacity:1;fill-rule:nonzero;stroke:none"
         d="M 5074.99,8622.44 4730,7842.48 6649.91,8157.47 Z" /><path
         id="path118"
         style="fill:#131211;fill-opacity:1;fill-rule:nonzero;stroke:none"
         d="M 5074.99,8622.44 4730,7842.48 4385.02,8832.43 Z" /><path
         id="path120"
         style="fill:#21201f;fill-opacity:1;fill-rule:nonzero;stroke:none"
         d="M 4385.02,8832.43 3380.5,8772.44 4730,7842.48 Z" /><path
         id="path122"
         style="fill:#131211;fill-opacity:1;fill-rule:nonzero;stroke:none"
         d="M 3530.07,8052.47 3380.5,8772.44 4730,7842.48 Z" /><path
         id="path124"
         style="fill:#21201f;fill-opacity:1;fill-rule:nonzero;stroke:none"
         d="m 3530.07,8052.47 -149.57,719.97 -953.83,-323.5 z" /><path
         id="path126"
         style="fill:#131211;fill-opacity:1;fill-rule:nonzero;stroke:none"
         d="M 1419.06,9991.23 3380.5,8772.44 2426.67,8448.94 Z" /><path
         id="path128"
         style="fill:#131211;fill-opacity:1;fill-rule:nonzero;stroke:none"
         d="M 1419.06,9991.23 3380.5,8772.44 4385.02,8832.43 Z" /><path
         id="path130"
         style="fill:#131211;fill-opacity:1;fill-rule:nonzero;stroke:none"
         d="m 3636.33,9124.94 748.69,-292.51 -119.99,1158.8 z" /><path
         id="path132"
         style="fill:#131211;fill-opacity:1;fill-rule:nonzero;stroke:none"
         d="m 4890.71,9048.13 -505.69,-215.7 -119.99,1158.8 z" /><path
         id="path134"
         style="fill:#131211;fill-opacity:1;fill-rule:nonzero;stroke:none"
         d="m 4890.71,9048.13 -505.69,-215.7 1485.53,-444.86 z" /><path
         id="path136"
         style="fill:#131211;fill-opacity:1;fill-rule:nonzero;stroke:none"
         d="m 4265.03,9991.23 625.68,-943.1 440,420 z" /><path
         id="path138"
         style="fill:#272626;fill-opacity:1;fill-rule:nonzero;stroke:none"
         d="m 4265.03,9991.23 625.68,-943.1 440,420 z" /><path
         id="path140"
         style="fill:#131211;fill-opacity:1;fill-rule:nonzero;stroke:none"
         d="m 5870.55,8387.57 -979.84,660.56 440,420 z" /><path
         id="path142"
         style="fill:#302f2f;fill-opacity:1;fill-rule:nonzero;stroke:none"
         d="M 3636.33,9124.94 1419.06,9991.23 H 4265.03 Z" /><path
         id="path144"
         style="fill:#3a3a3b;fill-opacity:1;fill-rule:nonzero;stroke:none"
         d="m 1419.06,9991.23 107.26,-1218.79 900.35,-323.5 z" /><path
         id="path146"
         style="fill:#131211;fill-opacity:1;fill-rule:nonzero;stroke:none"
         d="M 3530.07,8052.47 3380.5,8772.44" /><path
         id="path148"
         style="fill:#131211;fill-opacity:1;fill-rule:nonzero;stroke:none"
         d="M 4436.63,6012.58 5962.25,4226.23" /><path
         id="path150"
         style="fill:#181615;fill-opacity:1;fill-rule:nonzero;stroke:none"
         d="M 3922.04,4649.07 4039.08,3358.94 2721.92,4004 Z" /><path
         id="path152"
         style="fill:#272626;fill-opacity:1;fill-rule:nonzero;stroke:none"
         d="M 4039.08,3358.94 2721.92,4004 3922.04,2008.81 Z" /><path
         id="path154"
         style="fill:#131211;fill-opacity:1;fill-rule:nonzero;stroke:none"
         d="M 7072.36,1408.75 5962.25,4226.23 7586.79,3364.26 Z" /><path
         id="path156"
         style="fill:#21201f;fill-opacity:1;fill-rule:nonzero;stroke:none"
         d="M 1614.05,7791.45 1419.06,9991.23 362.473,7842.48 Z" /><path
         id="path158"
         style="fill:#3a3a3b;fill-opacity:1;fill-rule:nonzero;stroke:none"
         d="m 522.535,9991.23 h 896.525 l -374,-773.06 z" /><path
         id="path160"
         style="fill:#131211;fill-opacity:1;fill-rule:nonzero;stroke:none"
         d="M 522.535,9991.23 H 0 l 1045.06,-773.06 z" /><path
         id="path162"
         style="fill:#2a2928;fill-opacity:1;fill-rule:nonzero;stroke:none"
         d="M 0,7977.47 V 9991.23 L 1045.06,9218.17 Z" /><path
         id="path164"
         style="fill:#131211;fill-opacity:1;fill-rule:nonzero;stroke:none"
         d="M 1045.07,9218.18 0,7977.47 362.473,7842.48 Z" /><path
         id="path166"
         style="fill:#131211;fill-opacity:1;fill-rule:nonzero;stroke:none"
         d="M 1526.32,8772.44 3530.07,8052.47 1614.05,7791.45 Z" /><path
         id="path168"
         style="fill:#302f2f;fill-opacity:1;fill-rule:nonzero;stroke:none"
         d="M 4951.23,2475.1 3922.04,2008.81 4312.02,838.879 Z" /><path
         id="path170"
         style="fill:#131211;fill-opacity:1;fill-rule:nonzero;stroke:none"
         d="M 1827.02,1618.84 3922.04,2008.81 4312.02,838.879 Z" /><path
         id="path172"
         style="fill:#302f2f;fill-opacity:1;fill-rule:nonzero;stroke:none"
         d="M 2017.13,2668.78 1827.02,1618.84 3922.04,2008.81 Z" /><path
         id="path174"
         style="fill:#21201f;fill-opacity:1;fill-rule:nonzero;stroke:none"
         d="M 2287.12,1474.42 2396,1099.89 4312.02,838.879 Z" /><path
         id="path176"
         style="fill:#131211;fill-opacity:1;fill-rule:nonzero;stroke:none"
         d="M 2287.12,1474.42 2396,1099.89 1144.42,1048.87 Z" /><path
         id="path178"
         style="fill:#2a2928;fill-opacity:1;fill-rule:nonzero;stroke:none"
         d="M 2090.14,3005.65 1827.02,1618.84 1262.9,2008.81 Z" /><path
         id="path180"
         style="fill:#131211;fill-opacity:1;fill-rule:nonzero;stroke:none"
         d="M 1827.02,1618.84 781.953,913.879 2287.12,1474.42 Z" /><path
         id="path182"
         style="fill:#3a3a3b;fill-opacity:1;fill-rule:nonzero;stroke:none"
         d="m 781.953,913.879 1045.067,704.961 460.1,-144.42 z" /><path
         id="path184"
         style="fill:#21201f;fill-opacity:1;fill-rule:nonzero;stroke:none"
         d="M 781.953,913.879 515.215,1107.82 1827.02,1618.84 Z" /><path
         id="path186"
         style="fill:#131211;fill-opacity:1;fill-rule:nonzero;stroke:none"
         d="M 5511.96,1048.87 4312.02,838.879 4951.23,2475.1 Z" /><path
         id="path188"
         style="fill:#131211;fill-opacity:1;fill-rule:nonzero;stroke:none"
         d="M 7072.36,1408.75 9499.77,2475.1 7582.41,3328.95 Z" /><path
         id="path190"
         style="fill:#131211;fill-opacity:1;fill-rule:nonzero;stroke:none"
         d="M 7072.36,1408.75 9499.77,2475.1 8500.71,268.91 Z" /><path
         id="path192"
         style="fill:#21201f;fill-opacity:1;fill-rule:nonzero;stroke:none"
         d="M 9654.05,478.891 9499.77,2475.1 8500.71,268.91 Z" /><path
         id="path194"
         style="fill:#1b1918;fill-opacity:1;fill-rule:nonzero;stroke:none"
         d="M 5511.96,1048.87 7072.36,1408.75 4951.23,2475.1 Z" /><path
         id="path196"
         style="fill:#302f2f;fill-opacity:1;fill-rule:nonzero;stroke:none"
         d="m 5856.94,268.91 -344.98,779.96 1560.4,359.88 z" /><path
         id="path198"
         style="fill:#131211;fill-opacity:1;fill-rule:nonzero;stroke:none"
         d="M 5856.94,268.91 5511.96,1048.87 5166.98,58.918 Z" /><path
         id="path200"
         style="fill:#21201f;fill-opacity:1;fill-rule:nonzero;stroke:none"
         d="m 5166.98,58.918 -1004.52,59.992 1349.5,929.96 z" /><path
         id="path202"
         style="fill:#131211;fill-opacity:1;fill-rule:nonzero;stroke:none"
         d="M 4312.02,838.879 4162.46,118.91 5511.96,1048.87 Z" /><path
         id="path204"
         style="fill:#21201f;fill-opacity:1;fill-rule:nonzero;stroke:none"
         d="M 4312.02,838.879 4162.46,118.91 3208.62,442.41 Z" /><path
         id="path206"
         style="fill:#131211;fill-opacity:1;fill-rule:nonzero;stroke:none"
         d="M 2201.01,-1099.87 4162.46,118.91 3208.62,442.41 Z" /><path
         id="path208"
         style="fill:#131211;fill-opacity:1;fill-rule:nonzero;stroke:none"
         d="M 2201.01,-1099.87 4162.46,118.91 5166.98,58.918 Z" /><path
         id="path210"
         style="fill:#131211;fill-opacity:1;fill-rule:nonzero;stroke:none"
         d="m 4418.28,-233.57 748.7,292.488 -120,-1158.788 z" /><path
         id="path212"
         style="fill:#131211;fill-opacity:1;fill-rule:nonzero;stroke:none"
         d="m 5672.67,-156.77 -505.69,215.688 -120,-1158.788 z" /><path
         id="path214"
         style="fill:#131211;fill-opacity:1;fill-rule:nonzero;stroke:none"
         d="M 5672.67,-156.77 5166.98,58.918 6652.5,503.781 Z" /><path
         id="path216"
         style="fill:#131211;fill-opacity:1;fill-rule:nonzero;stroke:none"
         d="m 6652.5,503.781 -979.83,-660.551 440,-420 z" /><path
         id="path218"
         style="fill:#3a3a3b;fill-opacity:1;fill-rule:nonzero;stroke:none"
         d="m 2201.01,-1099.87 107.27,1218.78 900.34,323.5 z" /><path
         id="path220"
         style="fill:#131211;fill-opacity:1;fill-rule:nonzero;stroke:none"
         d="M 4312.02,838.879 4162.46,118.91" /><path
         id="path222"
         style="fill:#21201f;fill-opacity:1;fill-rule:nonzero;stroke:none"
         d="M 2396,1099.89 2201.01,-1099.87 1144.42,1048.87 Z" /><path
         id="path224"
         style="fill:#2a2928;fill-opacity:1;fill-rule:nonzero;stroke:none"
         d="M 781.953,913.879 0,-326.871 h 1827.02 z" /><path
         id="path226"
         style="fill:#3a3a3b;fill-opacity:1;fill-rule:nonzero;stroke:none"
         d="M 781.953,913.879 0,-326.871 515.215,1107.82 Z" /><path
         id="path228"
         style="fill:#2a2928;fill-opacity:1;fill-rule:nonzero;stroke:none"
         d="M 515.215,1107.82 0,-326.871 V 2562.74 Z" /><path
         id="path230"
         style="fill:#131211;fill-opacity:1;fill-rule:nonzero;stroke:none"
         d="M 1827.02,-326.871 781.953,913.879 1144.42,1048.87 Z" /><path
         id="path232"
         style="fill:#131211;fill-opacity:1;fill-rule:nonzero;stroke:none"
         d="M 2308.28,118.91 4312.02,838.879 2396,1099.89 Z" /><path
         id="path234"
         style="fill:#1b1919;fill-opacity:1;fill-rule:nonzero;stroke:none"
         d="m 10912.7,4409.07 968,-1350.95" /><path
         id="path236"
         style="fill:#1b1919;fill-opacity:1;fill-rule:nonzero;stroke:none"
         d="m 11283.2,2140.39 -1254.8,1086.97 1354.5,-305.92 z" /><path
         id="path238"
         style="fill:#1b1918;fill-opacity:1;fill-rule:nonzero;stroke:none"
         d="M 7410.72,3140.62 9061.76,3314.1 7912.89,2534.16 Z" /></g></g></svg>